<svg xmlns="http://www.w3.org/2000/svg" version="1.0" width="300.000000pt" height="240.000000pt" viewBox="0 0 300.000000 240.000000" preserveAspectRatio="xMidYMid meet">
<metadata>
Created by potrace 1.10, written by Peter Selinger 2001-2011
</metadata>
<g transform="translate(0.000000,240.000000) scale(0.050000,-0.050000)" fill="#{$carousel-control-color}" stroke="none">
<path d="M5545 4770 c-22 -24 -14 -28 47 -26 66 2 70 5 37 29 -45 33 -53 33 -84 -3z"/>
<path d="M1375 3485 c-36 -8 -50 -65 -17 -65 18 0 45 -27 192 -194 120 -138 97 -183 -157 -306 -222 -109 -353 -204 -353 -258 0 -19 -67 -128 -149 -243 -241 -336 -301 -542 -309 -1065 -4 -248 -1 -275 35 -311 119 -119 674 -110 920 15 107 55 109 61 55 175 -213 441 -275 854 -149 997 149 170 307 152 355 -40 39 -156 169 -233 394 -234 291 -1 425 127 428 407 0 35 165 217 197 217 50 0 223 118 223 152 0 15 -18 39 -40 53 -82 51 -21 55 817 55 l856 0 42 45 c24 25 56 76 71 113 l29 67 201 -3 c111 -3 279 2 373 10 l171 14 0 167 c0 141 -5 167 -33 167 -18 0 -44 15 -57 34 -23 31 -31 31 -118 -2 -144 -55 -2360 -56 -2400 -1 -40 54 -996 29 -1167 -31 -144 -51 -161 -50 -245 7 -85 56 -119 68 -165 58z m143 -85 c105 -72 129 -73 266 -16 98 41 145 45 631 52 l525 7 -12 -320 c-11 -310 -10 -322 30 -347 57 -35 54 -42 -40 -108 l-83 -57 -431 -6 c-238 -4 -442 -14 -453 -24 -22 -17 -492 -281 -501 -281 -3 0 -16 27 -30 60 -35 84 -141 172 -260 214 -165 58 -119 122 207 288 338 172 357 228 151 460 -134 151 -134 168 0 78z m4002 -210 l0 -90 -1280 0 -1280 0 0 90 0 90 1280 0 1280 0 0 -90z m-760 -163 c0 -7 -19 -43 -42 -80 l-41 -67 -859 0 -858 0 0 80 0 80 900 0 c495 0 900 -6 900 -13z m-3590 -504 c170 -78 258 -221 195 -318 -78 -119 -23 -468 137 -872 43 -110 72 -207 62 -217 -87 -87 -622 -151 -819 -98 -125 34 -132 59 -119 441 16 467 73 644 306 956 119 159 122 160 238 108z m1073 -101 c178 113 380 -161 229 -312 -96 -96 -376 -117 -510 -38 -128 76 -132 244 -8 344 l73 58 94 -34 c58 -22 105 -28 122 -18z"/>
<path d="M1804 3367 c-222 -110 -158 -531 88 -579 l62 -12 13 125 c47 447 10 551 -163 466z m136 -267 c0 -302 0 -303 -102 -234 -191 128 -172 434 31 493 34 9 63 18 66 19 3 1 5 -124 5 -278z"/>
<path d="M2000 3165 c0 -129 -6 -269 -13 -310 l-12 -75 462 0 463 0 0 50 0 50 -331 0 c-216 0 -327 7 -319 20 7 12 141 20 332 20 l321 0 -7 65 -6 65 -335 5 c-198 4 -336 14 -338 25 -2 11 -4 31 -5 45 -1 19 83 28 338 35 l340 10 0 60 0 60 -330 10 -330 10 323 10 c178 6 330 16 337 24 46 46 -37 56 -451 56 l-439 0 0 -235z m534 200 c-306 -5 -336 -9 -330 -40 6 -31 42 -36 331 -40 308 -6 325 -8 325 -45 0 -38 -15 -40 -316 -40 -334 0 -364 -8 -364 -93 0 -68 21 -72 362 -70 l318 2 0 -49 0 -49 -325 -6 c-291 -4 -325 -9 -331 -40 -6 -32 20 -35 325 -35 290 0 331 -4 331 -32 0 -38 -722 -35 -775 3 -40 29 -63 165 -64 374 l-1 175 425 -4 425 -5 -336 -6z"/>
<path d="M1567 2890 c-7 -18 -3 -42 9 -54 30 -30 88 -3 80 39 -9 46 -73 57 -89 15z"/>
<path d="M1104 2665 c4 -19 20 -35 36 -35 16 0 32 16 36 35 5 25 -6 35 -36 35 -30 0 -41 -10 -36 -35z"/>
<path d="M944 2378 c-144 -200 -219 -359 -256 -548 -37 -192 -49 -717 -16 -750 107 -107 909 -29 862 85 -223 543 -296 952 -189 1069 60 67 -95 249 -237 277 -55 11 -67 2 -164 -133z m243 -41 c25 -41 -14 -97 -68 -97 -46 0 -70 72 -37 112 30 36 76 30 105 -15z m-35 -310 c-7 -17 -12 -39 -12 -50 0 -11 -19 -14 -42 -6 -36 11 -40 7 -28 -32 10 -31 7 -40 -9 -29 -17 10 -17 3 1 -26 14 -22 37 -35 52 -30 16 7 26 -5 26 -33 0 -27 -9 -38 -22 -30 -38 24 3 -77 49 -121 34 -32 36 -41 11 -46 -21 -4 -28 -24 -22 -73 6 -49 16 -65 36 -57 20 7 25 0 17 -27 -12 -36 -11 -36 12 0 19 30 27 32 40 11 20 -32 -49 -86 -86 -68 -14 7 -9 0 11 -16 27 -23 30 -33 10 -40 -14 -6 -6 -12 19 -12 25 -1 45 -11 45 -21 0 -11 14 -15 30 -8 18 7 30 0 30 -19 0 -16 -15 -35 -33 -42 -42 -16 -111 5 -96 29 6 11 -3 19 -20 19 -18 0 -32 -18 -32 -45 -2 -43 -3 -43 -19 -5 -16 38 -17 38 -19 -5 0 -25 -10 -45 -21 -45 -11 0 -27 0 -35 0 -15 0 -17 8 -22 70 -2 17 -17 30 -34 30 -17 0 -26 9 -19 20 8 13 -5 13 -39 0 -45 -17 -51 -14 -52 25 -2 43 -3 43 -18 5 -16 -40 -16 -40 -24 0 -7 39 33 95 86 116 19 8 17 11 -7 12 -23 1 -31 13 -23 33 7 19 2 28 -14 25 -15 -3 -30 11 -35 32 -6 27 0 35 22 26 22 -8 32 6 38 57 5 47 0 69 -18 69 -35 0 -33 70 4 107 17 17 30 49 30 72 0 22 10 41 21 41 12 0 16 8 10 18 -25 41 13 81 71 74 32 -4 58 -1 58 6 0 8 19 15 42 17 30 2 38 -6 30 -28z m-189 -789 c-8 -55 -43 -102 -43 -57 -1 25 -4 25 -20 -1 -16 -24 -19 -21 -20 15 0 25 9 45 20 45 11 0 20 14 20 32 0 17 11 27 25 23 14 -5 22 -30 18 -57z"/>
<path d="M2135 2365 c-18 -19 -36 -66 -40 -105 -7 -60 -9 -55 -14 30 -5 95 -6 97 -24 40 -25 -75 4 -158 65 -191 39 -21 42 -20 28 14 -33 78 -34 148 -2 197 38 58 32 65 -13 15z"/>
</g>
</svg>